<svg width="41" height="41" viewBox="0 0 41 41" fill="none" xmlns="http://www.w3.org/2000/svg">
<path d="M20.5 21C23.5376 21 26 18.5376 26 15.5C26 12.4624 23.5376 10 20.5 10C17.4624 10 15 12.4624 15 15.5C15 18.5376 17.4624 21 20.5 21Z" fill="#D9A82A"/>
<circle cx="20.5" cy="20.5" r="18" stroke="#D9A82A"/>
<path d="M31 28.1398V29.0499C31 30.1224 30.055 31 28.9 31H12.1C10.945 31 10 30.1224 10 29.0499V28.1398C10 25.7672 12.975 24.3371 15.775 23.1995C15.88 23.167 15.95 23.1345 16.055 23.0695C16.265 22.972 16.51 22.972 16.72 23.102C17.84 23.7845 19.135 24.1746 20.5 24.1746C21.865 24.1746 23.16 23.7845 24.28 23.1345C24.49 23.0045 24.735 23.0045 24.945 23.102C25.05 23.1345 25.12 23.167 25.225 23.232C28.025 24.3371 31 25.7672 31 28.1398Z" fill="#D9A82A"/>
</svg>
