<svg width="105" height="28" viewBox="0 0 105 28" fill="none" xmlns="http://www.w3.org/2000/svg">
<path d="M0.876421 27V0.818181H4.8267V23.5994H16.6903V27H0.876421ZM45.0801 13.9091C45.0801 16.7045 44.5687 19.108 43.546 21.1193C42.5233 23.1222 41.1213 24.6648 39.34 25.7472C37.5673 26.821 35.5517 27.358 33.2932 27.358C31.0261 27.358 29.002 26.821 27.2207 25.7472C25.448 24.6648 24.0503 23.1179 23.0275 21.1065C22.0048 19.0952 21.4935 16.696 21.4935 13.9091C21.4935 11.1136 22.0048 8.71449 23.0275 6.71165C24.0503 4.70028 25.448 3.15767 27.2207 2.08381C29.002 1.00142 31.0261 0.460226 33.2932 0.460226C35.5517 0.460226 37.5673 1.00142 39.34 2.08381C41.1213 3.15767 42.5233 4.70028 43.546 6.71165C44.5687 8.71449 45.0801 11.1136 45.0801 13.9091ZM41.1682 13.9091C41.1682 11.7784 40.823 9.98437 40.1327 8.52699C39.4508 7.06108 38.5133 5.95313 37.3202 5.20312C36.1355 4.4446 34.7932 4.06534 33.2932 4.06534C31.7846 4.06534 30.4381 4.4446 29.2534 5.20312C28.0687 5.95313 27.1312 7.06108 26.4409 8.52699C25.7591 9.98437 25.4182 11.7784 25.4182 13.9091C25.4182 16.0398 25.7591 17.8381 26.4409 19.304C27.1312 20.7614 28.0687 21.8693 29.2534 22.6278C30.4381 23.3778 31.7846 23.7528 33.2932 23.7528C34.7932 23.7528 36.1355 23.3778 37.3202 22.6278C38.5133 21.8693 39.4508 20.7614 40.1327 19.304C40.823 17.8381 41.1682 16.0398 41.1682 13.9091ZM69.8839 9.08949C69.6368 8.31392 69.3044 7.61932 68.8868 7.00568C68.4777 6.38352 67.9876 5.85511 67.4166 5.42045C66.8456 4.97727 66.1936 4.64062 65.4606 4.41051C64.7362 4.1804 63.9393 4.06534 63.07 4.06534C61.5956 4.06534 60.266 4.4446 59.0814 5.20312C57.8967 5.96165 56.9592 7.07386 56.2689 8.53977C55.587 9.99716 55.2461 11.7827 55.2461 13.8963C55.2461 16.0185 55.5913 17.8125 56.2816 19.2784C56.972 20.7443 57.918 21.8565 59.1197 22.6151C60.3214 23.3736 61.6893 23.7528 63.2234 23.7528C64.6467 23.7528 65.8868 23.4631 66.9436 22.8835C68.0089 22.304 68.8314 21.4858 69.4109 20.429C69.999 19.3636 70.293 18.1108 70.293 16.6705L71.3157 16.8622H63.8243V13.6023H74.1155V16.581C74.1155 18.7798 73.6467 20.6889 72.7092 22.3082C71.7802 23.919 70.4933 25.1634 68.8484 26.0412C67.212 26.919 65.337 27.358 63.2234 27.358C60.8541 27.358 58.7745 26.8125 56.9848 25.7216C55.2035 24.6307 53.8143 23.0838 52.8172 21.081C51.82 19.0696 51.3214 16.6832 51.3214 13.9219C51.3214 11.8338 51.6112 9.95881 52.1907 8.29688C52.7703 6.63494 53.5842 5.22443 54.6325 4.06534C55.6893 2.89773 56.9294 2.0071 58.3527 1.39347C59.7845 0.771306 61.3484 0.460226 63.0444 0.460226C64.4592 0.460226 65.776 0.669033 66.9947 1.08665C68.222 1.50426 69.3129 2.09659 70.2674 2.86364C71.2305 3.63068 72.0274 4.54261 72.6581 5.59943C73.2888 6.64773 73.7149 7.81108 73.9365 9.08949H69.8839ZM104.033 13.9091C104.033 16.7045 103.522 19.108 102.499 21.1193C101.476 23.1222 100.074 24.6648 98.2929 25.7472C96.5201 26.821 94.5045 27.358 92.246 27.358C89.9789 27.358 87.9548 26.821 86.1735 25.7472C84.4008 24.6648 83.0031 23.1179 81.9804 21.1065C80.9576 19.0952 80.4463 16.696 80.4463 13.9091C80.4463 11.1136 80.9576 8.71449 81.9804 6.71165C83.0031 4.70028 84.4008 3.15767 86.1735 2.08381C87.9548 1.00142 89.9789 0.460226 92.246 0.460226C94.5045 0.460226 96.5201 1.00142 98.2929 2.08381C100.074 3.15767 101.476 4.70028 102.499 6.71165C103.522 8.71449 104.033 11.1136 104.033 13.9091ZM100.121 13.9091C100.121 11.7784 99.7758 9.98437 99.0855 8.52699C98.4037 7.06108 97.4662 5.95313 96.273 5.20312C95.0883 4.4446 93.746 4.06534 92.246 4.06534C90.7375 4.06534 89.3909 4.4446 88.2062 5.20312C87.0216 5.95313 86.0841 7.06108 85.3937 8.52699C84.7119 9.98437 84.371 11.7784 84.371 13.9091C84.371 16.0398 84.7119 17.8381 85.3937 19.304C86.0841 20.7614 87.0216 21.8693 88.2062 22.6278C89.3909 23.3778 90.7375 23.7528 92.246 23.7528C93.746 23.7528 95.0883 23.3778 96.273 22.6278C97.4662 21.8693 98.4037 20.7614 99.0855 19.304C99.7758 17.8381 100.121 16.0398 100.121 13.9091Z" fill="#D9A82A"/>
</svg>
