<svg width="41" height="41" viewBox="0 0 41 41" fill="none" xmlns="http://www.w3.org/2000/svg">
<circle cx="20.5" cy="20.5" r="18.5" stroke="#D9A82A"/>
<path d="M30.7749 25.9263C29.9931 24.4483 27.2785 22.8457 27.159 22.7756C26.8102 22.577 26.4462 22.4719 26.1056 22.4719C25.5991 22.4719 25.1845 22.704 24.9334 23.126C24.5363 23.601 24.0438 24.1563 23.9243 24.2423C22.9993 24.87 22.2752 24.7987 21.474 23.9974L17.0025 19.5249C16.2064 18.7286 16.1332 17.9955 16.7565 17.0754C16.8437 16.9551 17.3988 16.4622 17.8738 16.0646C18.1767 15.8844 18.3845 15.6165 18.4756 15.2879C18.5967 14.8506 18.5076 14.3363 18.2218 13.8352C18.1545 13.7199 16.5513 11.0045 15.0743 10.2231C14.7987 10.0771 14.488 10 14.1766 10C13.6635 10 13.1807 10.2001 12.8179 10.5626L11.8299 11.5504C10.2672 13.1129 9.70156 14.8841 10.1477 16.8145C10.5199 18.4234 11.6045 20.1354 13.3719 21.9027L19.0966 27.6282C21.3335 29.8654 23.4661 31 25.4352 31C26.8834 31 28.2339 30.3844 29.4473 29.1708L30.435 28.183C31.0353 27.583 31.1716 26.6758 30.7749 25.9263Z" fill="#D9A82A"/>
</svg>
